<svg width="35" height="34" viewBox="0 0 35 34" fill="none" xmlns="http://www.w3.org/2000/svg">
<path d="M15.9182 1.30541L12.5781 4.21374H17.3682V0.765637C16.8512 0.763965 16.3337 0.943891 15.9182 1.30541Z" fill="#FDF0BC"/>
<path d="M18.8002 1.30206C18.3891 0.946108 17.8794 0.767296 17.3691 0.765625V4.21373H22.1592L18.8002 1.30206Z" fill="url(#paint0_linear_142_5156)"/>
<path d="M5.71641 6.07378L5.02734 10.4488L8.6966 7.37002L6.48012 4.72852C6.08294 5.0594 5.80219 5.5301 5.71641 6.07378Z" fill="#FDF0BC"/>
<path d="M7.92154 4.21905C7.37787 4.21014 6.87207 4.4012 6.48047 4.72819L8.69695 7.36969L12.3662 4.29091L7.92154 4.21905Z" fill="url(#paint1_linear_142_5156)"/>
<path d="M0.967019 16.2845L3.2509 20.0791L4.08257 15.3621L0.687382 14.7627C0.59547 15.2718 0.682926 15.8127 0.967019 16.2845Z" fill="#FDF0BC"/>
<path d="M1.46402 13.4465C1.04234 13.7896 0.777741 14.2609 0.6875 14.7628L4.08325 15.3616L4.91491 10.6445L1.46402 13.4465Z" fill="url(#paint2_linear_142_5156)"/>
<path d="M3.89129 27.1592L8.08027 28.5975L5.68554 24.4492L2.69922 26.1733C2.95602 26.6222 3.37046 26.9804 3.89129 27.1592Z" fill="url(#paint3_linear_142_5156)"/>
<path d="M2.44823 24.6652C2.34518 25.1989 2.44545 25.7303 2.6989 26.1731L5.68522 24.4491L3.29049 20.3008L2.44823 24.6652Z" fill="url(#paint4_linear_142_5156)"/>
<path d="M13.1211 33.6095L17.2544 32.0191L12.7535 30.3809L11.5742 33.6212C12.0594 33.7994 12.6075 33.8072 13.1211 33.6095Z" fill="url(#paint5_linear_142_5156)"/>
<path d="M10.4141 32.627C10.6782 33.1022 11.0965 33.4448 11.5756 33.6208L12.7548 30.3805L8.25391 28.7422L10.4141 32.627Z" fill="url(#paint6_linear_142_5156)"/>
<path d="M24.3393 32.6185L26.4833 28.7432L21.9824 30.3814L23.1617 33.6218C23.6474 33.4463 24.0725 33.1004 24.3393 32.6185Z" fill="url(#paint7_linear_142_5156)"/>
<path d="M21.6341 33.6067C22.1421 33.8011 22.6824 33.7944 23.1626 33.6212L21.9833 30.3809L17.4824 32.0191L21.6341 33.6067Z" fill="url(#paint8_linear_142_5156)"/>
<path d="M32.2939 24.6474L31.4455 20.3008L29.0508 24.4491L32.0371 26.1731C32.2967 25.7258 32.3997 25.1877 32.2939 24.6474Z" fill="url(#paint9_linear_142_5156)"/>
<path d="M30.8569 27.1448C31.3705 26.9671 31.7805 26.6145 32.0373 26.1733L29.051 24.4492L26.6562 28.5975L30.8569 27.1448Z" fill="url(#paint10_linear_142_5156)"/>
<path d="M33.2645 13.4286L29.8203 10.6445L30.652 15.3616L34.0477 14.7628C33.9603 14.2536 33.6929 13.7751 33.2645 13.4286Z" fill="url(#paint11_linear_142_5156)"/>
<path d="M33.7685 16.2656C34.0481 15.7994 34.1355 15.2657 34.0481 14.7627L30.6523 15.3615L31.484 20.0786L33.7685 16.2656Z" fill="url(#paint12_linear_142_5156)"/>
<path d="M26.799 4.20935L22.3711 4.29012L26.0403 7.36891L28.2568 4.7274C27.8619 4.39429 27.35 4.19933 26.799 4.20935Z" fill="url(#paint13_linear_142_5156)"/>
<path d="M29.009 6.0593C28.9232 5.5223 28.6474 5.05773 28.2575 4.72852L26.041 7.37002L29.7103 10.4488L29.009 6.0593Z" fill="url(#paint14_linear_142_5156)"/>
<path d="M17.3679 29.4008C23.8285 29.4008 29.0658 24.1634 29.0658 17.7028C29.0658 11.2422 23.8285 6.00488 17.3679 6.00488C10.9073 6.00488 5.66992 11.2422 5.66992 17.7028C5.66992 24.1634 10.9073 29.4008 17.3679 29.4008Z" fill="url(#paint15_radial_142_5156)"/>
<path d="M17.368 4.95996C10.3303 4.95996 4.625 10.6647 4.625 17.7024C4.625 24.7401 10.3303 30.4453 17.368 30.4453C24.4057 30.4453 30.1109 24.7401 30.1109 17.7024C30.1109 10.6647 24.4057 4.95996 17.368 4.95996ZM17.368 29.3992C10.9079 29.3992 5.67113 24.1624 5.67113 17.7024C5.67113 11.2423 10.9079 6.00553 17.368 6.00553C23.828 6.00553 29.0648 11.2423 29.0648 17.7024C29.0648 24.1624 23.828 29.3992 17.368 29.3992Z" fill="url(#paint16_linear_142_5156)"/>
<path d="M17.3684 3.33398C9.43275 3.33398 3 9.76674 3 17.7024C3 25.6381 9.43275 32.0708 17.3684 32.0708C25.3041 32.0708 31.7368 25.6381 31.7368 17.7024C31.7368 9.76674 25.3041 3.33398 17.3684 3.33398ZM17.3684 30.4392C10.3341 30.4392 4.63158 24.7368 4.63158 17.7024C4.63158 10.668 10.3341 4.96613 17.3684 4.96613C24.4028 4.96613 30.1052 10.6686 30.1052 17.703C30.1052 24.7373 24.4028 30.4392 17.3684 30.4392Z" fill="url(#paint17_linear_142_5156)"/>
<path d="M14.1439 23.5659C13.9489 23.5659 13.7679 23.5035 13.608 23.3921C13.5874 23.3782 13.5734 23.3643 13.5595 23.3503C13.5456 23.3437 13.5384 23.3297 13.5317 23.3225C13.5038 23.3013 13.4899 23.2807 13.4693 23.2601C13.4554 23.2462 13.4481 23.2323 13.4347 23.2183L13.4281 23.2116C13.4141 23.1977 13.4069 23.1838 13.4002 23.1699L13.3863 23.1487C13.3584 23.1069 13.3378 23.0651 13.3167 23.0234C13.31 23.0027 13.3027 22.9816 13.2955 22.961C13.2888 22.9398 13.2816 22.9125 13.2749 22.8913C13.2676 22.8635 13.2609 22.829 13.2537 22.7939C13.2537 22.7799 13.247 22.7593 13.247 22.7454C13.247 22.7175 13.2403 22.6897 13.2403 22.6618C13.2403 22.6134 13.247 22.5644 13.2543 22.5086L13.7901 19.3914L11.5285 17.1855C11.4868 17.1437 11.445 17.0953 11.4104 17.0463C11.3687 16.9839 11.3408 16.9349 11.3202 16.8792C11.3135 16.8585 11.2996 16.8307 11.2923 16.7956C11.2712 16.712 11.2578 16.6285 11.2578 16.5382C11.2578 16.5104 11.2578 16.4898 11.2578 16.4619C11.2578 16.4201 11.2645 16.3784 11.2784 16.3366C11.2784 16.3299 11.2851 16.316 11.2851 16.3087C11.2923 16.2876 11.2923 16.267 11.299 16.2464C11.299 16.2397 11.3057 16.2252 11.313 16.2046C11.3196 16.1834 11.3269 16.1628 11.3408 16.1422C11.3614 16.1004 11.3826 16.0586 11.4171 16.0102C11.4311 15.9823 11.4517 15.9617 11.4728 15.9405C11.4728 15.9405 11.4728 15.9338 11.4795 15.9338L11.5909 15.7528H11.6884C11.7023 15.7456 11.709 15.7389 11.7229 15.7316C11.7369 15.725 11.7647 15.711 11.7853 15.6971C11.8132 15.6832 11.8477 15.6693 11.8895 15.6553C11.9034 15.6486 11.924 15.6414 11.9452 15.6414C11.9731 15.6347 12.0009 15.6275 12.0354 15.6202L15.1666 15.1679L16.5442 12.3498C16.6974 12.0368 17.0104 11.8418 17.358 11.8418C17.6087 11.8418 17.8521 11.946 18.0259 12.127C18.0538 12.1615 18.0816 12.1894 18.1022 12.2245C18.1301 12.2663 18.1579 12.308 18.1785 12.3498L19.5773 15.1746L22.7012 15.6269C23.0493 15.6754 23.3345 15.9194 23.4387 16.253C23.446 16.2742 23.4526 16.2876 23.4526 16.3087C23.4526 16.3154 23.4526 16.3154 23.4593 16.3227C23.466 16.3438 23.4732 16.3644 23.4732 16.3923C23.4732 16.399 23.4732 16.399 23.4732 16.4062C23.4799 16.4341 23.4799 16.4547 23.4799 16.4825C23.4872 16.6146 23.466 16.7538 23.4103 16.8792C23.3891 16.9349 23.3618 16.9833 23.3267 17.0323L23.3195 17.039C23.285 17.0875 23.2432 17.1365 23.2014 17.1783L20.9398 19.3842L21.4757 22.4942C21.5314 22.8351 21.3994 23.176 21.1136 23.3849C21.044 23.4333 20.9604 23.4824 20.8769 23.5102C20.8696 23.5102 20.8629 23.5175 20.849 23.5175C20.7588 23.5453 20.668 23.5592 20.5777 23.5592C20.4318 23.5592 20.2853 23.5247 20.1533 23.4551L17.3563 21.9867L14.5594 23.4551C14.4358 23.5314 14.2898 23.5659 14.1439 23.5659Z" fill="#DF771E"/>
<path d="M17.3582 12.2871V18.0414L15.4375 15.5854L16.9404 12.545C17.0312 12.3779 17.1983 12.2871 17.3582 12.2871Z" fill="#FFFAF6"/>
<path d="M23.0153 16.3988L17.3652 18.041L19.2854 15.585L22.6393 16.0718C22.8276 16.1064 22.9596 16.2384 23.0153 16.3988Z" fill="#FEE0AC"/>
<path d="M20.8501 23.0299L17.3574 18.041L20.4607 19.2309L21.0311 22.5709C21.0724 22.7659 20.9888 22.9324 20.8501 23.0299Z" fill="#ECB76B"/>
<path d="M17.3585 18.041V21.4852L14.3593 23.0644C14.1855 23.1547 14.0045 23.1268 13.8652 23.0299L17.3585 18.041Z" fill="#F1A341"/>
<path d="M19.2781 15.5854L17.3574 18.0414V12.2871C17.4828 12.2871 17.6081 12.3356 17.6983 12.4331C17.7123 12.447 17.7262 12.4676 17.7401 12.4888C17.754 12.5099 17.768 12.5305 17.7746 12.5511L19.2781 15.5854Z" fill="#FFE9BA"/>
<path d="M23.0009 16.7126C22.9869 16.7405 22.973 16.7683 22.9591 16.7962C22.9379 16.824 22.9173 16.8446 22.8967 16.8725L20.4685 19.2383L17.3652 18.0484L23.0153 16.4062C23.0153 16.4129 23.022 16.4202 23.022 16.4274C23.022 16.4347 23.0293 16.4413 23.0293 16.4553C23.0293 16.4625 23.0293 16.4625 23.0293 16.4625C23.0293 16.4692 23.0293 16.4764 23.0293 16.4831C23.0293 16.497 23.0293 16.5043 23.0293 16.5177C23.036 16.58 23.0287 16.6497 23.0009 16.7126Z" fill="#E49632"/>
<path d="M20.8506 23.0299C20.8161 23.0578 20.7743 23.0784 20.7253 23.0923C20.7186 23.0923 20.7186 23.0923 20.7114 23.099C20.6 23.1335 20.4746 23.1268 20.3566 23.0644L17.3574 21.4852V18.041L20.8506 23.0299Z" fill="#E29136"/>
<path d="M17.3587 18.041L13.866 23.0299C13.8593 23.0227 13.8521 23.016 13.8454 23.0087C13.8387 23.0021 13.8315 22.9948 13.8243 22.9876C13.8176 22.9809 13.8103 22.9736 13.7964 22.9597C13.7892 22.953 13.7825 22.9458 13.7752 22.9386C13.768 22.9313 13.7685 22.9319 13.7685 22.9246C13.7619 22.9179 13.7546 22.9107 13.7546 22.9035C13.7407 22.8829 13.7268 22.8617 13.7201 22.8411C13.7134 22.8344 13.7134 22.8199 13.7062 22.8065C13.6995 22.7926 13.6995 22.7854 13.6922 22.772C13.6855 22.7581 13.6855 22.7375 13.6855 22.7235C13.6855 22.7169 13.6855 22.7024 13.6855 22.6957C13.6855 22.6818 13.6855 22.6678 13.6855 22.6539C13.6855 22.6261 13.6855 22.5982 13.6922 22.5703L14.2626 19.2303L17.3587 18.041Z" fill="#FED891"/>
<path d="M17.3571 18.0411L11.707 16.399C11.707 16.3923 11.7137 16.385 11.7137 16.3778C11.7204 16.3639 11.7204 16.3499 11.7276 16.3432C11.7416 16.3154 11.7555 16.2948 11.7694 16.2736C11.7761 16.2597 11.7833 16.2525 11.7973 16.2391C11.8045 16.2324 11.8112 16.2179 11.8251 16.2112C11.8318 16.2045 11.8463 16.1906 11.853 16.1834C11.8597 16.1761 11.8736 16.1695 11.8808 16.1622C11.8948 16.1555 11.9087 16.141 11.9226 16.1344C11.9293 16.1277 11.9432 16.1204 11.9571 16.1204C11.9783 16.1137 11.9917 16.1065 12.0128 16.0993C12.0195 16.0993 12.0268 16.0926 12.0407 16.0926C12.0546 16.0859 12.0752 16.0859 12.0964 16.0787L15.4504 15.5918L17.3571 18.0411Z" fill="#FFF3D9"/>
<path d="M17.3568 18.0405L14.2608 19.237L11.8326 16.8712C11.8048 16.8501 11.7908 16.8228 11.7702 16.7949C11.7563 16.767 11.7357 16.7392 11.7285 16.7113C11.7218 16.6974 11.7145 16.6835 11.7145 16.6696C11.7006 16.6278 11.6934 16.5793 11.6934 16.5375C11.6934 16.5236 11.6934 16.5097 11.6934 16.4958C11.6934 16.4752 11.6934 16.4612 11.7006 16.4401C11.7006 16.4334 11.7073 16.4261 11.7073 16.4122C11.7073 16.4055 11.714 16.3983 11.714 16.3916L17.3568 18.0405Z" fill="#ECB76B"/>
<defs>
<linearGradient id="paint0_linear_142_5156" x1="17.6033" y1="2.48968" x2="22.002" y2="2.48968" gradientUnits="userSpaceOnUse">
<stop stop-color="#FEE998"/>
<stop offset="1" stop-color="#FCC15B"/>
</linearGradient>
<linearGradient id="paint1_linear_142_5156" x1="7.81979" y1="5.85384" x2="12.2097" y2="2.17001" gradientUnits="userSpaceOnUse">
<stop stop-color="#FEE998"/>
<stop offset="1" stop-color="#FCC15B"/>
</linearGradient>
<linearGradient id="paint2_linear_142_5156" x1="4.99348" y1="10.6347" x2="2.51627" y2="14.7044" gradientUnits="userSpaceOnUse">
<stop stop-color="#FCC15B"/>
<stop offset="1" stop-color="#FEE998"/>
</linearGradient>
<linearGradient id="paint3_linear_142_5156" x1="3.82862" y1="25.2147" x2="8.13425" y2="28.0458" gradientUnits="userSpaceOnUse">
<stop stop-color="#FFC05F"/>
<stop offset="1" stop-color="#ED892B"/>
</linearGradient>
<linearGradient id="paint4_linear_142_5156" x1="3.33959" y1="20.3911" x2="4.10634" y2="25.2275" gradientUnits="userSpaceOnUse">
<stop stop-color="#FCC15B"/>
<stop offset="1" stop-color="#FEE998"/>
</linearGradient>
<linearGradient id="paint5_linear_142_5156" x1="12.3794" y1="32.0587" x2="16.6261" y2="33.0024" gradientUnits="userSpaceOnUse">
<stop stop-color="#FEAC3E"/>
<stop offset="1" stop-color="#F08223"/>
</linearGradient>
<linearGradient id="paint6_linear_142_5156" x1="8.04152" y1="28.7052" x2="11.9343" y2="31.8902" gradientUnits="userSpaceOnUse">
<stop stop-color="#FFA135"/>
<stop offset="1" stop-color="#FEB431"/>
</linearGradient>
<linearGradient id="paint7_linear_142_5156" x1="26.5002" y1="28.7155" x2="22.6173" y2="32.0577" gradientUnits="userSpaceOnUse">
<stop stop-color="#FFAA3D"/>
<stop offset="1" stop-color="#ED8B1C"/>
</linearGradient>
<linearGradient id="paint8_linear_142_5156" x1="17.4995" y1="32.3293" x2="22.4539" y2="32.0541" gradientUnits="userSpaceOnUse">
<stop stop-color="#FF962D"/>
<stop offset="1" stop-color="#E56005"/>
</linearGradient>
<linearGradient id="paint9_linear_142_5156" x1="31.6276" y1="20.3182" x2="30.6315" y2="25.1678" gradientUnits="userSpaceOnUse">
<stop stop-color="#FDBD41"/>
<stop offset="1" stop-color="#FEB334"/>
</linearGradient>
<linearGradient id="paint10_linear_142_5156" x1="32.9336" y1="21.1727" x2="28.1436" y2="29.4689" gradientUnits="userSpaceOnUse">
<stop stop-color="#F6942F"/>
<stop offset="1" stop-color="#EA6F11"/>
</linearGradient>
<linearGradient id="paint11_linear_142_5156" x1="29.5799" y1="10.784" x2="32.4634" y2="15.0569" gradientUnits="userSpaceOnUse">
<stop stop-color="#FDBD41"/>
<stop offset="1" stop-color="#FEB334"/>
</linearGradient>
<linearGradient id="paint12_linear_142_5156" x1="31.3045" y1="20.0665" x2="32.4317" y2="15.0859" gradientUnits="userSpaceOnUse">
<stop stop-color="#FD9D24"/>
<stop offset="1" stop-color="#FF9515"/>
</linearGradient>
<linearGradient id="paint13_linear_142_5156" x1="27.093" y1="5.98322" x2="22.6367" y2="3.83368" gradientUnits="userSpaceOnUse">
<stop stop-color="#FCC15B"/>
<stop offset="1" stop-color="#FEE998"/>
</linearGradient>
<linearGradient id="paint14_linear_142_5156" x1="27.1151" y1="5.71027" x2="29.2385" y2="10.4288" gradientUnits="userSpaceOnUse">
<stop stop-color="#FF9515"/>
<stop offset="1" stop-color="#FFBE41"/>
</linearGradient>
<radialGradient id="paint15_radial_142_5156" cx="0" cy="0" r="1" gradientUnits="userSpaceOnUse" gradientTransform="translate(17.3679 17.7026) scale(11.6979)">
<stop offset="0.8428" stop-color="#FAAA31"/>
<stop offset="1" stop-color="#F57E16"/>
</radialGradient>
<linearGradient id="paint16_linear_142_5156" x1="17.368" y1="4.95974" x2="17.368" y2="30.4456" gradientUnits="userSpaceOnUse">
<stop offset="0.0226" stop-color="#FD9A18"/>
<stop offset="0.3764" stop-color="#FEC752"/>
<stop offset="1" stop-color="#FFA422"/>
</linearGradient>
<linearGradient id="paint17_linear_142_5156" x1="17.3685" y1="3.29187" x2="17.3685" y2="32.0288" gradientUnits="userSpaceOnUse">
<stop stop-color="#FFDB69"/>
<stop offset="0.1799" stop-color="#FEE7B0"/>
<stop offset="0.24" stop-color="#FEE9BA"/>
<stop offset="0.2592" stop-color="#FDECD0"/>
<stop offset="0.2953" stop-color="#FEDA92"/>
<stop offset="0.3254" stop-color="#FFCD64"/>
<stop offset="0.3405" stop-color="#FFC853"/>
<stop offset="0.7613" stop-color="#FF9114"/>
<stop offset="1" stop-color="#F57E16"/>
</linearGradient>
</defs>
</svg>
