<svg width="27" height="27" viewBox="0 0 27 27" fill="none" xmlns="http://www.w3.org/2000/svg">
<path d="M22.0288 9.64361C22.0288 10.0977 21.9964 10.5409 21.9423 10.9625C21.445 10.7463 20.9045 10.6274 20.3315 10.6274C19.0126 10.6274 17.845 11.2652 17.1207 12.2382C16.3856 11.2652 15.218 10.6274 13.8991 10.6274C11.6829 10.6274 9.88828 12.4328 9.88828 14.6706C9.88828 17.5679 11.4234 19.7841 13.1315 21.2868C13.0775 21.3193 13.0234 21.3301 12.9694 21.3517C12.645 21.4707 12.1045 21.4707 11.7802 21.3517C8.98017 20.3896 2.7207 16.4112 2.7207 9.64361C2.7207 6.65982 5.12069 4.24902 8.08286 4.24902C9.84502 4.24902 11.4018 5.09226 12.3747 6.40036C13.3585 5.09226 14.9153 4.24902 16.6666 4.24902C19.6288 4.24902 22.0288 6.65982 22.0288 9.64361Z" stroke="white" stroke-width="1.5" stroke-linecap="round" stroke-linejoin="round"/>
<path d="M24.3427 14.6702C24.3427 19.7296 19.6617 22.7134 17.5644 23.4269C17.3157 23.5134 16.9157 23.5134 16.667 23.4269C15.7697 23.1242 14.3968 22.3999 13.1319 21.2864C11.4238 19.7837 9.88867 17.5675 9.88867 14.6702C9.88867 12.4323 11.6833 10.627 13.8995 10.627C15.2184 10.627 16.386 11.2648 17.1211 12.2378C17.8454 11.2648 19.013 10.627 20.3319 10.627C20.9049 10.627 21.4454 10.7459 21.9427 10.9621C23.3589 11.5891 24.3427 13.0053 24.3427 14.6702Z" stroke="white" stroke-width="1.5" stroke-linecap="round" stroke-linejoin="round"/>
</svg>
