<svg width="95" height="15" viewBox="0 0 95 15" fill="none" xmlns="http://www.w3.org/2000/svg">
<path d="M8.78889 1.07438L10.1089 3.71438C10.2889 4.08188 10.7689 4.43437 11.1739 4.50187L13.5664 4.89937C15.0964 5.15438 15.4564 6.26437 14.3539 7.35938L12.4939 9.21937C12.1789 9.53437 12.0064 10.1419 12.1039 10.5769L12.6364 12.8794C13.0564 14.7019 12.0889 15.4069 10.4764 14.4544L8.23389 13.1269C7.82889 12.8869 7.16139 12.8869 6.74889 13.1269L4.50639 14.4544C2.90139 15.4069 1.92639 14.6944 2.34639 12.8794L2.87889 10.5769C2.97639 10.1419 2.80389 9.53437 2.48889 9.21937L0.628887 7.35938C-0.466113 6.26437 -0.113613 5.15438 1.41639 4.89937L3.80889 4.50187C4.20639 4.43437 4.68639 4.08188 4.86639 3.71438L6.18639 1.07438C6.90639 -0.358125 8.07639 -0.358125 8.78889 1.07438Z" fill="#EFA310"/>
<path d="M28.7908 1.07438L30.1108 3.71438C30.2908 4.08188 30.7708 4.43437 31.1758 4.50187L33.5683 4.89937C35.0983 5.15438 35.4583 6.26437 34.3558 7.35938L32.4958 9.21937C32.1808 9.53437 32.0083 10.1419 32.1058 10.5769L32.6383 12.8794C33.0583 14.7019 32.0908 15.4069 30.4783 14.4544L28.2358 13.1269C27.8308 12.8869 27.1633 12.8869 26.7508 13.1269L24.5083 14.4544C22.9033 15.4069 21.9283 14.6944 22.3483 12.8794L22.8808 10.5769C22.9783 10.1419 22.8058 9.53437 22.4908 9.21937L20.6308 7.35938C19.5358 6.26437 19.8883 5.15438 21.4183 4.89937L23.8108 4.50187C24.2083 4.43437 24.6883 4.08188 24.8683 3.71438L26.1883 1.07438C26.9083 -0.358125 28.0783 -0.358125 28.7908 1.07438Z" fill="#EFA310"/>
<path d="M48.7928 1.07438L50.1128 3.71438C50.2928 4.08188 50.7728 4.43437 51.1778 4.50187L53.5703 4.89937C55.1003 5.15438 55.4603 6.26437 54.3578 7.35938L52.4978 9.21937C52.1828 9.53437 52.0103 10.1419 52.1078 10.5769L52.6403 12.8794C53.0603 14.7019 52.0928 15.4069 50.4803 14.4544L48.2378 13.1269C47.8328 12.8869 47.1653 12.8869 46.7528 13.1269L44.5103 14.4544C42.9053 15.4069 41.9303 14.6944 42.3503 12.8794L42.8828 10.5769C42.9803 10.1419 42.8078 9.53437 42.4928 9.21937L40.6328 7.35938C39.5378 6.26437 39.8903 5.15438 41.4203 4.89937L43.8128 4.50187C44.2103 4.43437 44.6903 4.08188 44.8703 3.71438L46.1903 1.07438C46.9103 -0.358125 48.0803 -0.358125 48.7928 1.07438Z" fill="#EFA310"/>
<path d="M68.7947 1.07438L70.1147 3.71438C70.2947 4.08188 70.7747 4.43437 71.1797 4.50187L73.5722 4.89937C75.1022 5.15438 75.4622 6.26437 74.3597 7.35938L72.4997 9.21937C72.1847 9.53437 72.0122 10.1419 72.1097 10.5769L72.6422 12.8794C73.0622 14.7019 72.0947 15.4069 70.4822 14.4544L68.2397 13.1269C67.8347 12.8869 67.1672 12.8869 66.7547 13.1269L64.5122 14.4544C62.9072 15.4069 61.9322 14.6944 62.3522 12.8794L62.8847 10.5769C62.9822 10.1419 62.8097 9.53437 62.4947 9.21937L60.6347 7.35938C59.5397 6.26437 59.8922 5.15438 61.4222 4.89937L63.8147 4.50187C64.2122 4.43437 64.6922 4.08188 64.8722 3.71438L66.1922 1.07438C66.9122 -0.358125 68.0822 -0.358125 68.7947 1.07438Z" fill="#EFA310"/>
<path d="M88.7947 1.07438L90.1147 3.71438C90.2947 4.08188 90.7747 4.43437 91.1797 4.50187L93.5722 4.89937C95.1022 5.15438 95.4622 6.26437 94.3597 7.35938L92.4997 9.21937C92.1847 9.53437 92.0122 10.1419 92.1097 10.5769L92.6422 12.8794C93.0622 14.7019 92.0947 15.4069 90.4822 14.4544L88.2397 13.1269C87.8347 12.8869 87.1672 12.8869 86.7547 13.1269L84.5122 14.4544C82.9072 15.4069 81.9322 14.6944 82.3522 12.8794L82.8847 10.5769C82.9822 10.1419 82.8097 9.53437 82.4947 9.21937L80.6347 7.35938C79.5397 6.26437 79.8922 5.15438 81.4222 4.89937L83.8147 4.50187C84.2122 4.43437 84.6922 4.08188 84.8722 3.71438L86.1922 1.07438C86.9122 -0.358125 88.0822 -0.358125 88.7947 1.07438Z" fill="#EFA310"/>
</svg>
