<svg width="27" height="27" viewBox="0 0 27 27" fill="none" xmlns="http://www.w3.org/2000/svg">
<path d="M2.77539 3.05957H4.65648C5.82405 3.05957 6.74296 4.06498 6.64566 5.22173L5.74836 15.9893C5.59701 17.7515 6.9916 19.265 8.76457 19.265H20.2781C21.8349 19.265 23.197 17.9893 23.3159 16.4434L23.8997 8.33525C24.0294 6.54066 22.6673 5.08119 20.8619 5.08119H6.90513" stroke="black" stroke-width="1.5" stroke-miterlimit="10" stroke-linecap="round" stroke-linejoin="round"/>
<path d="M18.1805 24.6812C18.9268 24.6812 19.5318 24.0762 19.5318 23.3299C19.5318 22.5835 18.9268 21.9785 18.1805 21.9785C17.4341 21.9785 16.8291 22.5835 16.8291 23.3299C16.8291 24.0762 17.4341 24.6812 18.1805 24.6812Z" stroke="black" stroke-width="1.5" stroke-miterlimit="10" stroke-linecap="round" stroke-linejoin="round"/>
<path d="M9.53202 24.6812C10.2783 24.6812 10.8834 24.0762 10.8834 23.3299C10.8834 22.5835 10.2783 21.9785 9.53202 21.9785C8.78568 21.9785 8.18066 22.5835 8.18066 23.3299C8.18066 24.0762 8.78568 24.6812 9.53202 24.6812Z" stroke="black" stroke-width="1.5" stroke-miterlimit="10" stroke-linecap="round" stroke-linejoin="round"/>
<path d="M10.3428 9.5459H23.3157" stroke="black" stroke-width="1.5" stroke-miterlimit="10" stroke-linecap="round" stroke-linejoin="round"/>
</svg>
