<svg width="17" height="17" viewBox="0 0 17 17" fill="none" xmlns="http://www.w3.org/2000/svg">
<path d="M11.1178 15.567H5.88375C5.2271 15.5563 4.60086 15.2884 4.13957 14.821C3.67828 14.3535 3.41876 13.7238 3.41675 13.067L2.59375 3.49902H14.4818L13.6597 13.062C13.6547 13.7313 13.3841 14.3711 12.9074 14.8409C12.4307 15.3106 11.787 15.5718 11.1178 15.567V15.567Z" stroke="#FF5790" stroke-miterlimit="10"/>
<path d="M6.45117 6.53516V12.5312" stroke="#FF5790" stroke-miterlimit="10" stroke-linecap="round"/>
<path d="M10.5508 6.53516V12.5312" stroke="#FF5790" stroke-miterlimit="10" stroke-linecap="round"/>
<path d="M3.58025 3.49902C3.54941 3.13561 3.59051 2.76968 3.70121 2.42216C3.8119 2.07465 3.99002 1.75236 4.22536 1.47374C4.46071 1.19511 4.74867 0.965608 5.07278 0.798359C5.39689 0.63111 5.7508 0.529392 6.11425 0.499023H10.9593C11.6804 0.577587 12.3419 0.935779 12.8019 1.49669C13.2618 2.0576 13.4835 2.7765 13.4193 3.49902H3.58025Z" stroke="#FF5790" stroke-miterlimit="10"/>
<path d="M1 3.49902H16" stroke="#FF5790" stroke-miterlimit="10" stroke-linecap="round"/>
</svg>
