<svg width="16" height="16" viewBox="0 0 16 16" fill="none" xmlns="http://www.w3.org/2000/svg">
<path d="M5.89844 14.5625H9.83594C13.1172 14.5625 14.4297 13.25 14.4297 9.96875V6.03125C14.4297 2.75 13.1172 1.4375 9.83594 1.4375H5.89844C2.61719 1.4375 1.30469 2.75 1.30469 6.03125V9.96875C1.30469 13.25 2.61719 14.5625 5.89844 14.5625Z" stroke="white" stroke-width="0.984375" stroke-linecap="round" stroke-linejoin="round"/>
<path d="M7.86719 10.2969C9.13572 10.2969 10.1641 9.26853 10.1641 8C10.1641 6.73147 9.13572 5.70312 7.86719 5.70312C6.59866 5.70312 5.57031 6.73147 5.57031 8C5.57031 9.26853 6.59866 10.2969 7.86719 10.2969Z" stroke="white" stroke-width="0.984375" stroke-linecap="round" stroke-linejoin="round"/>
<path d="M11.5659 4.71875H11.5735" stroke="white" stroke-width="1.3125" stroke-linecap="round" stroke-linejoin="round"/>
</svg>
