<svg width="22" height="24" viewBox="0 0 22 24" fill="none" xmlns="http://www.w3.org/2000/svg">
<path d="M14.3692 5.36623C14.3692 7.39469 12.7248 9.03909 10.6963 9.03909C8.66784 9.03909 7.02344 7.39469 7.02344 5.36623C7.02344 3.33776 8.66784 1.69336 10.6963 1.69336C12.7248 1.69336 14.3692 3.33776 14.3692 5.36623Z" stroke="#FF2A3E" stroke-width="2"/>
<g clip-path="url(#clip0_147_1340)">
<path d="M20.9444 23.7577V19.3667C20.9024 18.0871 20.3544 16.8764 19.4208 16.0003C18.4872 15.1242 17.2441 14.6543 15.9644 14.6937H6.00344C4.72374 14.6543 3.48069 15.1242 2.54706 16.0003C1.61343 16.8764 1.06547 18.0871 1.02344 19.3667V23.7577" stroke="#FF2A3E" stroke-width="2"/>
</g>
<defs>
<clipPath id="clip0_147_1340">
<rect width="21.921" height="10.064" fill="white" transform="translate(0.0234375 13.6934)"/>
</clipPath>
</defs>
</svg>
